<?xml version="1.0" encoding="UTF-8"?> <svg xmlns="http://www.w3.org/2000/svg" xmlns:xlink="http://www.w3.org/1999/xlink" viewBox="0 0 1431.43 414.07"><defs><style> .cls-1 { isolation: isolate; } .cls-2 { fill: #fff; } .cls-3 { fill: #ffc424; } .cls-4 { fill: #0a2943; } .cls-5 { fill: #3a6bc4; } .cls-6 { fill: #b11f21; } .cls-7 { fill: #822324; } .cls-8 { fill: #6c1315; } .cls-9 { fill: #c49106; } .cls-10 { fill: #6b7f8f; } .cls-11 { fill: #3d3532; } .cls-12 { opacity: 0.2; } .cls-13 { opacity: 0.4; mix-blend-mode: overlay; } .cls-14 { fill: url(#linear-gradient); } .cls-15 { fill: url(#linear-gradient-2); } </style><linearGradient id="linear-gradient" x1="224.7" y1="-39.94" x2="54.96" y2="129.8" gradientUnits="userSpaceOnUse"><stop offset="0" stop-color="#fff"></stop><stop offset="0.02" stop-color="#fbfbfb"></stop><stop offset="0.37" stop-color="#b1b0b0"></stop><stop offset="0.67" stop-color="#7b7979"></stop><stop offset="0.88" stop-color="#5a5758"></stop><stop offset="1" stop-color="#4d4a4b"></stop></linearGradient><linearGradient id="linear-gradient-2" x1="292.71" y1="106.17" x2="10.12" y2="388.76" xlink:href="#linear-gradient"></linearGradient></defs><g class="cls-1"><g id="Layer_2" data-name="Layer 2"><g id="Layer_1-2" data-name="Layer 1"><g id="Light_on_dark" data-name="Light on dark"><g id="Logo_Text" data-name="Logo Text"><g><path class="cls-2" d="M509.63,170.57a43.87,43.87,0,0,1,20.3,4.67,34,34,0,0,1,14.1,13.1,36.8,36.8,0,0,1,5,19.08,38.46,38.46,0,0,1-4.79,19.46,33.64,33.64,0,0,1-14.09,13.18,43.85,43.85,0,0,1-20.5,4.82,43.27,43.27,0,0,1-20.45-4.82,33.85,33.85,0,0,1-14-13.18,38.45,38.45,0,0,1-4.78-19.46,36.44,36.44,0,0,1,5-19.19,34.42,34.42,0,0,1,14.1-13A43.35,43.35,0,0,1,509.63,170.57Zm-19.46,36.85q0,10.72,5.25,17.12a17.23,17.23,0,0,0,14.06,6.4q9.19,0,14.48-6.13t5.28-17.54q0-10.89-5.32-16.82t-14.44-5.94a17.51,17.51,0,0,0-14,6.28Q490.17,197.08,490.17,207.42Z"></path><path class="cls-2" d="M583,136.48v107H564.1v-107ZM634.89,172l-29,35.32,32.63,36.23h-23.9l-31.34-36.23L612.75,172Z"></path><path class="cls-2" d="M677.41,170.57q15.78,0,25,10.11t9.19,28v2.83H660.94q1.15,9.57,7.16,14.75t16.51,5.17a36.69,36.69,0,0,0,13-2.34A57,57,0,0,0,710.51,222v14q-12.57,8.88-30.49,8.88-16.93,0-27.66-10.19t-10.73-27.12q0-16.32,9.92-26.66T677.41,170.57Zm16.47,29.49q-.76-7.81-4.75-12.22t-11-4.4q-7.12,0-11.46,4.21t-5.47,12.41ZM700,139l-22.14,22.9H667.68L678.79,139Z"></path><path class="cls-2" d="M767.81,170.57a24.36,24.36,0,0,1,14,3.87,23.71,23.71,0,0,1,8.54,10.38q6-7.44,12.06-10.84a26.38,26.38,0,0,1,13.22-3.41q11.34,0,18.31,7.39t7,19.73V243.5H822.05V200.83q0-7.43-3.17-11.72t-9.24-4.29q-8.65,0-16.62,11.11V243.5H774.25v-43q0-7.35-3.37-11.52a11,11,0,0,0-9-4.18,14.52,14.52,0,0,0-8.43,2.64,37.85,37.85,0,0,0-8.2,8.47V243.5H726.37V172h18.84v10a37.58,37.58,0,0,1,10.42-8.62A25.63,25.63,0,0,1,767.81,170.57Z"></path><path class="cls-2" d="M894.61,170.57a43.93,43.93,0,0,1,20.3,4.67,34,34,0,0,1,14.1,13.1,36.79,36.79,0,0,1,5,19.08,38.45,38.45,0,0,1-4.78,19.46,33.67,33.67,0,0,1-14.1,13.18,43.83,43.83,0,0,1-20.49,4.82,43.31,43.31,0,0,1-20.46-4.82,33.77,33.77,0,0,1-14-13.18,38.46,38.46,0,0,1-4.79-19.46,36.45,36.45,0,0,1,5.06-19.19,34.46,34.46,0,0,1,14.09-13A43.37,43.37,0,0,1,894.61,170.57Zm-19.46,36.85q0,10.72,5.24,17.12a17.25,17.25,0,0,0,14.06,6.4q9.19,0,14.48-6.13t5.29-17.54q0-10.89-5.33-16.82t-14.44-5.94a17.49,17.49,0,0,0-13.94,6.28Q875.14,197.08,875.15,207.42Z"></path><path class="cls-2" d="M990.52,170.57q11.51,0,18.35,7.55t6.86,19.88v45.5H997V199.91q0-7-3.33-11a11.11,11.11,0,0,0-9.08-4.06,14.4,14.4,0,0,0-8.2,2.57,38.61,38.61,0,0,0-8.43,8.54V243.5H949.08V172h18.84v10a33.61,33.61,0,0,1,10.69-8.78A27.06,27.06,0,0,1,990.52,170.57Z"></path><path class="cls-2" d="M1226.28,255.5a43.76,43.76,0,0,1,20.26,4.66,33.89,33.89,0,0,1,14.07,13.07,36.78,36.78,0,0,1,5,19,38.43,38.43,0,0,1-4.78,19.42,33.59,33.59,0,0,1-14.07,13.15,43.76,43.76,0,0,1-20.45,4.82,43.27,43.27,0,0,1-20.42-4.82,33.71,33.71,0,0,1-14-13.15,38.43,38.43,0,0,1-4.77-19.42,36.42,36.42,0,0,1,5-19.16,34.4,34.4,0,0,1,14.07-13A43.32,43.32,0,0,1,1226.28,255.5Zm-19.43,36.78q0,10.7,5.24,17.08a17.21,17.21,0,0,0,14,6.39q9.18,0,14.45-6.12t5.28-17.51q0-10.86-5.31-16.78t-14.42-5.93a17.41,17.41,0,0,0-13.91,6.27Q1206.86,282,1206.85,292.28Z"></path><path class="cls-2" d="M1322,255.5q11.48,0,18.31,7.53t6.85,19.84v45.42h-18.73V284.78q0-7-3.33-11a11.11,11.11,0,0,0-9.06-4,14.43,14.43,0,0,0-8.19,2.56,38.87,38.87,0,0,0-8.41,8.52v47.49h-18.81V256.87h18.81v10a33.49,33.49,0,0,1,10.67-8.76A27,27,0,0,1,1322,255.5Z"></path><path class="cls-2" d="M1397.33,255.5q15.75,0,24.93,10.09t9.17,27.91v2.83h-50.54q1.14,9.56,7.15,14.72t16.48,5.16a36.83,36.83,0,0,0,13-2.33,56.52,56.52,0,0,0,12.88-7.08v14q-12.54,8.86-30.43,8.87-16.9,0-27.61-10.17t-10.7-27.07q0-16.29,9.9-26.61T1397.33,255.5Zm16.44,29.43q-.76-7.8-4.74-12.19t-10.94-4.4q-7.11,0-11.43,4.21t-5.46,12.38Z"></path><path class="cls-3" d="M1049.17,176.44a11.38,11.38,0,0,1,11.39-9.08c7.49.18,19.69.12,37.42-.94a523.28,523.28,0,0,0,107.3-18.28c11.11-3.09,19.25,10.36,11.36,18.77l-119.11,127A4.2,4.2,0,0,0,1101,301l108.46-9.89c9.6-.88,14,8.8,10.44,17.77-3.39,8.65-13.25,22.14-18.82,35.65-7.59,18.44-7.93,20.72-12.14,34.76-2.52,8.43-9.42,11.74-16.91,7.12a318.84,318.84,0,0,0-78.74-34.94c-18.43-5.31-35.12-8.91-66.41-13.22a11.35,11.35,0,0,1-6.13-19.63l123.1-112.43a7.28,7.28,0,0,0-5.7-12.62L1073,200.61a11.6,11.6,0,0,0-3.82,1.12l-15.37,7.61a6.93,6.93,0,0,1-9.86-7.61Z"></path><path class="cls-3" d="M510.74,84.94c-22-62.21-113.7-25-155.61-4.1a22.81,22.81,0,0,0-9.65,31.6l105.15,207c3.59,6.38,13.35,2.71,11.84-4.46L438.12,197.82S534.15,151.28,510.74,84.94Zm-76.69,96.3-7.79-37.56c9-6.42,13.5-15.69,10.18-22.56-2.51-5.19-8.85-7.74-16.39-7.36L412.63,78s78.66-33.86,82.68,22.75C498.72,148.88,434.05,181.24,434.05,181.24Z"></path></g></g><g id="Logo_Main" data-name="Logo Main"><g id="Pack_Top" data-name="Pack Top"><g id="Pack_Top_Border" data-name="Pack Top Border"><path class="cls-4" d="M283,61.49a80.69,80.69,0,0,1-13.15,3.62c3.94-13.26.71-20,.71-20s-32.31,17.29-117-.54c-62.29-13.12-114.73-.53-114.73-.53,4.52,7.6-5,25.55-5,25.55C17,76.27,8.39,83.23,8.39,83.23S30,33.65,6.09,19c0,0,46.93-27.59,149.34-2,82.46,20.57,124.22-1.69,124.22-1.69S296.63,26,283,61.49Z"></path></g><g id="Pack_Top_BG" data-name="Pack Top BG"><path class="cls-5" d="M269.83,65.11c-19.21,4-60.09,8.39-126.86-3.65-50.09-9-86.8-.7-109.12,8.14,0,0,9.51-17.95,5-25.55,0,0,52.44-12.59,114.73.53,84.66,17.83,117,.54,117,.54S273.77,51.85,269.83,65.11Z"></path></g></g><g id="Card"><g id="Card_BG" data-name="Card BG"><path class="cls-6" d="M263.82,83.26H39A14.43,14.43,0,0,0,24.52,97.68v49.1c2-.43,4.42-.76,7-1.22q3.22-.59,7.06-1.16c21.92-3.23,58.55-5.65,108.18,1.41,46.72,6.64,91.5-1.86,117.78-8.88,2.39-.63,4.62-1.26,6.69-1.87,2.6-.75,4.93-1.46,7-2.11V133l0-.05V97.68A14.43,14.43,0,0,0,263.82,83.26Zm14.4,49.8v0S278.2,133.06,278.22,133.06Z"></path></g><g id="Card_Shadow" data-name="Card Shadow"><path class="cls-7" d="M278.22,116V133c-2.05.65-4.38,1.36-7,2.11-2.07.61-4.3,1.24-6.69,1.87-26.28,7-71.06,15.52-117.78,8.88-49.63-7.06-86.26-4.64-108.18-1.41q-3.84.57-7.06,1.16c-2.59.46-5,.79-7,1.22h0v-20h0c2-.34,4.44-.56,7-.92,2-.28,4.16-.56,6.49-.83q6.07-.7,13.66-1.3c4.33-.32,9-.6,14.1-.81l.8,0q9.44-.37,20.49-.33l3.55,0h.45c2.25,0,4.56.07,6.91.14l1.91.06,1.88,0q9.09.32,19,1,7.41.51,15.3,1.25c3.3.32,6.67.66,10.1,1,46.72,5.2,91.5-1.46,117.77-7,2.61-.55,5-1.08,7.26-1.59,2.62-.6,5-1.17,7-1.68,0,0,0,0,0,0S278.2,116,278.22,116Z"></path></g><g id="Card_Border" data-name="Card Border"><path class="cls-8" d="M278.22,133.06v0S278.2,133.06,278.22,133.06Zm-14.4-49.8H39A14.43,14.43,0,0,0,24.52,97.68v49.1c2-.43,4.42-.76,7-1.22V97.68A7.43,7.43,0,0,1,39,90.26H263.82a7.43,7.43,0,0,1,7.42,7.42v37.38c2.6-.75,4.93-1.46,7-2.11V133l0-.05V97.68A14.43,14.43,0,0,0,263.82,83.26Z"></path></g><g id="Card_Stars" data-name="Card Stars"><g><path class="cls-3" d="M66.13,120.21l.45,2.67c-5.36.21-10.33.5-14.9.84l.59-3.51-6.87-6.74,9.51-1.42,4.29-8.6,4.29,8.6,9.5,1.42Z"></path><path class="cls-3" d="M101.33,120.21l.44,2.65c-5.11-.17-10-.27-14.7-.3l.39-2.35-6.85-6.74,9.5-1.42,4.29-8.6,4.28,8.6,9.51,1.42Z"></path><path class="cls-3" d="M135.29,120.21l.82,4.9q-7.89-.75-15.3-1.26l.61-3.64-6.86-6.74,9.51-1.42,4.29-8.6,4.28,8.6,9.51,1.42Z"></path></g><path class="cls-9" d="M67.72,129.69l-8.52-4.44-8.52,4.44,1-6c4.57-.34,9.54-.63,14.9-.84Z"></path><path class="cls-9" d="M102.92,129.69l-8.52-4.44-8.53,4.44,1.2-7.13c4.68,0,9.59.13,14.7.3Z"></path><path class="cls-9" d="M136.88,129.69l-8.52-4.44-8.53,4.44,1-5.84q7.41.51,15.3,1.26Z"></path></g></g><g id="Phone_Frame" data-name="Phone Frame"><path class="cls-4" d="M288.25,129.45v253.4A25.13,25.13,0,0,1,263.12,408H39.76a25.12,25.12,0,0,1-25.13-25.14V149.46s3.35-1.13,9.89-2.55c3.66-.79,8.32-1.68,13.94-2.51V355.29h226V136.93c5.46-1.46,10.12-2.85,13.83-4C284.66,130.86,288.25,129.45,288.25,129.45Z"></path></g><g id="Pokeball_Button" data-name="Pokeball Button"><path class="cls-10" d="M169.09,380.31H158.45a7.17,7.17,0,0,0-14,0H133.79a17.71,17.71,0,0,1,35.3,0Z"></path><path class="cls-10" d="M169.08,383.43a17.71,17.71,0,0,1-35.28,0h10.65a7.17,7.17,0,0,0,14,0Z"></path></g><g id="Phone_BG" data-name="Phone BG"><path class="cls-5" d="M264.42,136.93V355.29h-226V144.4c21.92-3.23,58.55-5.65,108.18,1.41C193.36,152.45,238.15,144,264.42,136.93Z"></path></g><g id="Pika"><path id="Pika_Main" data-name="Pika Main" class="cls-3" d="M245.64,335.81c2.13-2.14,16.39-17.15,18.68-37-.29-8.32-3.14-55-30.43-78.34h0c-23.18,44.71-22.29,92.24-22.14,96.91a174.25,174.25,0,0,0-60.51-10.58,171.39,171.39,0,0,0-60.16,10.56S93.35,267.12,68.94,220h0c-27.28,23.31-30.14,70-30.43,78.34,2.48,21.5,19,37.31,19,37.31-2.09,1.61-4.1,3.27-6,5,.42-.07,11.38-1.71,20.82,14.6h192A85.49,85.49,0,0,0,245.64,335.81Z"></path><g id="Pika_Ears" data-name="Pika Ears"><path class="cls-11" d="M38.46,179.47v118.6c0,.1,0,.21,0,.31.29-8.31,3.15-55,30.43-78.34A147.86,147.86,0,0,0,38.46,179.47Z"></path><path class="cls-11" d="M233.89,220.44c27.29,23.31,30.14,70,30.43,78.34,0-.1,0-.21,0-.31V179.87A147.76,147.76,0,0,0,233.89,220.44Z"></path></g><g id="Pika_Cheeks" data-name="Pika Cheeks"><path class="cls-6" d="M51.44,340.69h0a89.65,89.65,0,0,0-13,14.25v.35h33.8C62.82,339,51.86,340.62,51.44,340.69Z"></path><path class="cls-6" d="M251.45,340.69h0c-.42-.07-11.37-1.71-20.82,14.6h33.8v-.35A89.18,89.18,0,0,0,251.45,340.69Z"></path></g></g><g id="PZ_Letters" data-name="PZ Letters"><path class="cls-2" d="M125,230.73a4.56,4.56,0,0,1,3.39-4.78c2.92-.77,7.64-2.15,14.38-4.53a211.13,211.13,0,0,0,39.5-19,4.58,4.58,0,0,1,6.48,6l-32,62.41a1.69,1.69,0,0,0,2.12,2.35l40.88-15.91c3.61-1.4,6.38,1.86,6,5.72s-2.67,10-3.32,15.89a103.43,103.43,0,0,0-.83,14.81c0,3.54-2.34,5.59-5.75,4.64a128.1,128.1,0,0,0-34.37-4.76c-7.72,0-14.58.46-27.17,2.27a4.57,4.57,0,0,1-4.56-6.91l35.13-57.22a2.93,2.93,0,0,0-3.61-4.25l-24.43,10a4.77,4.77,0,0,0-1.35.86L130.4,243a2.8,2.8,0,0,1-4.67-1.85Z"></path><path class="cls-2" d="M152.25,169.6c-8.26-30-52.63-15.56-73-7.12A10.75,10.75,0,0,0,73.63,177l42.54,100.83a3,3,0,0,0,5.71-1.7l-7.54-55.89S161,201.58,152.25,169.6ZM113,212.32l-2.41-17.91c4.46-2.72,6.87-6.93,5.53-10.28-1-2.52-3.9-3.93-7.45-4l-2.3-17.06s38.11-13.3,38.11,13.45C144.46,199.27,113,212.32,113,212.32Z"></path></g><g id="Border" class="cls-12"><path class="cls-2" d="M74.57,6.09C96.14,6.09,123,8.85,155.43,17c26.06,6.5,48.06,8.72,65.95,8.72,38.73,0,58.27-10.41,58.27-10.41S296.63,26,283,61.49a80.69,80.69,0,0,1-13.15,3.62c-9.83,2-25.32,4.19-47,4.19-20.75,0-47.19-2-79.82-7.84a236.76,236.76,0,0,0-42.1-3.9c-29.06,0-51.51,5.9-67,12C17,76.27,8.39,83.23,8.39,83.23S30,33.65,6.09,19C6.09,19,28,6.09,74.57,6.09m0-6.09C26.89,0,4,13.16,3,13.72a6.09,6.09,0,0,0-.1,10.44c4,2.45,6.49,6.42,7.65,12.15,1,5.18.94,11.6-.32,19.08A124.16,124.16,0,0,1,2.81,80.8,6.09,6.09,0,0,0,12.21,88c.07-.06,8.28-6.52,23.89-12.71a160.37,160.37,0,0,1,27.37-8,190.56,190.56,0,0,1,37.4-3.6,232.13,232.13,0,0,1,41,3.8c29.22,5.27,56.44,7.94,80.9,7.94,22.75,0,38.81-2.35,48.28-4.32a84.09,84.09,0,0,0,14.25-4,6.09,6.09,0,0,0,3.34-3.43,79.84,79.84,0,0,0,5.63-24A42.46,42.46,0,0,0,292.17,23c-3.15-8.85-8.64-12.53-9.26-12.92a6,6,0,0,0-6.11-.24,74.33,74.33,0,0,1-13.87,4.85c-8.44,2.21-22.5,4.86-41.55,4.86-20.06,0-41.75-2.88-64.48-8.55-29.34-7.32-57-11-82.33-11Z"></path><path class="cls-2" d="M263.82,83.25a14.45,14.45,0,0,1,14.43,14.43h0v18.2h0v17c6.41-2,10-3.45,10-3.45v253.4A25.13,25.13,0,0,1,263.12,408H39.76a25.12,25.12,0,0,1-25.13-25.14V149.46s3.36-1.13,9.9-2.55V97.68h0A14.29,14.29,0,0,1,27,89.62c.13-.2.26-.38.4-.57A14.4,14.4,0,0,1,39,83.25H263.82m0-6.08H39A20.62,20.62,0,0,0,22.52,85.4l-.58.81a20.42,20.42,0,0,0-3.5,11.47v44.4c-3.69.92-5.64,1.57-5.75,1.61a6.09,6.09,0,0,0-4.15,5.77V382.85a31.21,31.21,0,0,0,31.22,31.22H263.12a31.26,31.26,0,0,0,31.22-31.22V129.45a6.09,6.09,0,0,0-8.31-5.67l-1.7.63V97.68a20.41,20.41,0,0,0-2-8.9,20.5,20.5,0,0,0-18.49-11.61Z"></path></g><g id="Shader" class="cls-13"><g><path class="cls-14" d="M33.85,69.6c22.32-8.84,59-17.17,109.12-8.14,66.77,12,107.65,7.65,126.86,3.65A80.69,80.69,0,0,0,283,61.49c13.65-35.45-3.33-46.23-3.33-46.23S237.89,37.52,155.43,17C53-8.62,6.09,19,6.09,19,30,33.65,8.39,83.23,8.39,83.23S17,76.27,33.85,69.6Z"></path><path class="cls-15" d="M278.25,115.88h0V97.68h0a14.39,14.39,0,0,0-.36-3.17c-.07-.31-.15-.62-.24-.92,0-.14-.08-.29-.13-.42-.09-.29-.2-.57-.31-.85s-.25-.6-.39-.89-.42-.83-.66-1.23a12.9,12.9,0,0,0-.78-1.15c-.26-.35-.53-.68-.82-1l-.08-.09a14.4,14.4,0,0,0-10.66-4.7H39a14.39,14.39,0,0,0-11.56,5.79c-.14.19-.27.37-.4.57a14.29,14.29,0,0,0-2.46,8.06h0v49.23c-6.54,1.42-9.9,2.55-9.9,2.55V382.85A25.12,25.12,0,0,0,39.76,408H263.12a25.13,25.13,0,0,0,25.13-25.14V129.45s-3.59,1.41-10,3.45Z"></path></g></g></g></g></g></g></g></svg> 