<?xml version="1.0" encoding="UTF-8"?> <svg xmlns="http://www.w3.org/2000/svg" xmlns:xlink="http://www.w3.org/1999/xlink" viewBox="0 0 505.83 711.51"><defs><style> .cls-1 { isolation: isolate; } .cls-2 { fill: #0a2943; } .cls-3 { fill: #3a6bc4; } .cls-4 { fill: #b11f21; } .cls-5 { fill: #822324; } .cls-6 { fill: #6c1315; } .cls-7 { fill: #ffc424; } .cls-8 { fill: #c49106; } .cls-9 { fill: #6b7f8f; } .cls-10 { fill: #3d3532; } .cls-11 { fill: #fff; } .cls-12 { opacity: 0.2; } .cls-13 { opacity: 0.4; mix-blend-mode: overlay; } .cls-14 { fill: url(#linear-gradient); } .cls-15 { fill: url(#linear-gradient-2); } </style><linearGradient id="linear-gradient" x1="386.11" y1="-68.63" x2="94.45" y2="223.04" gradientUnits="userSpaceOnUse"><stop offset="0" stop-color="#fff"></stop><stop offset="0.02" stop-color="#fbfbfb"></stop><stop offset="0.37" stop-color="#b1b0b0"></stop><stop offset="0.67" stop-color="#7b7979"></stop><stop offset="0.88" stop-color="#5a5758"></stop><stop offset="1" stop-color="#4d4a4b"></stop></linearGradient><linearGradient id="linear-gradient-2" x1="502.96" y1="182.43" x2="17.38" y2="668.01" xlink:href="#linear-gradient"></linearGradient></defs><g class="cls-1"><g id="PZ_Logo" data-name="PZ Logo"><g id="Pack_Top" data-name="Pack Top"><g id="Pack_Top_Border" data-name="Pack Top Border"><path class="cls-2" d="M486.24,105.67s-7.29,3-22.59,6.21c6.77-22.79,1.22-34.34,1.22-34.34s-55.51,29.7-201-.94c-107-22.54-197.14-.9-197.14-.9,7.77,13-8.57,43.9-8.57,43.9C29.26,131.06,14.42,143,14.42,143s37.12-85.19-4-110.41c0,0,80.65-47.41,256.62-3.48,141.69,35.35,213.45-2.9,213.45-2.9S509.7,44.74,486.24,105.67Z"></path></g><g id="Pack_Top_BG" data-name="Pack Top BG"><path class="cls-3" d="M463.65,111.88c-33,6.87-103.25,14.41-218-6.27-86.07-15.52-149.15-1.2-187.5,14,0,0,16.34-30.85,8.57-43.9,0,0,90.12-21.64,197.14.9,145.48,30.64,201,.94,201,.94S470.42,89.09,463.65,111.88Z"></path></g></g><g id="Card"><g id="Card_BG" data-name="Card BG"><path class="cls-4" d="M453.32,143.06H66.93a24.79,24.79,0,0,0-24.79,24.79v84.36c3.43-.74,7.59-1.3,12-2.1,3.7-.66,7.74-1.34,12.13-2,37.66-5.55,100.6-9.7,185.89,2.42,80.28,11.42,157.23-3.19,202.38-15.25,4.1-1.09,7.94-2.17,11.5-3.21,4.46-1.29,8.47-2.52,12-3.63v.11l.05-.07V167.85A24.79,24.79,0,0,0,453.32,143.06Zm24.75,85.57v-.07S478,228.64,478.07,228.63Z"></path></g><g id="Card_Shadow" data-name="Card Shadow"><path class="cls-5" d="M478.07,199.38v29.07c-3.52,1.11-7.53,2.34-12,3.63-3.56,1-7.4,2.12-11.5,3.21C409.43,247.35,332.48,262,252.2,250.54c-85.29-12.12-148.23-8-185.89-2.42-4.39.65-8.43,1.33-12.13,2-4.45.8-8.61,1.36-12,2.1h0V217.84h0c3.46-.58,7.62-1,12-1.58q5.13-.72,11.15-1.42c7-.8,14.79-1.57,23.47-2.23q11.17-.84,24.23-1.4l1.38-.05c10.81-.42,22.55-.63,35.2-.56l6.11.05h.76q5.82.08,11.88.25l3.28.09,3.24.1q15.6.54,32.71,1.69,12.74.89,26.29,2.16,8.52.81,17.35,1.79c80.28,8.95,157.23-2.5,202.37-12,4.48-.94,8.66-1.86,12.48-2.74,4.5-1,8.53-2,12-2.89,0,0,0,0,0,.08S478,199.39,478.07,199.38Z"></path></g><g id="Card_Border" data-name="Card Border"><path class="cls-6" d="M478.07,228.63v-.07S478,228.64,478.07,228.63Zm-24.75-85.57H66.93a24.79,24.79,0,0,0-24.79,24.79v84.36c3.43-.74,7.59-1.3,12-2.1V167.85a12.77,12.77,0,0,1,12.75-12.76H453.32a12.77,12.77,0,0,1,12.76,12.76v64.23c4.46-1.29,8.47-2.52,12-3.63v.11l.05-.07V167.85A24.79,24.79,0,0,0,453.32,143.06Z"></path></g><g id="Card_Stars" data-name="Card Stars"><g><path class="cls-7" d="M113.64,206.55l.77,4.6c-9.22.35-17.76.85-25.61,1.44l1-6L78,195l16.34-2.44,7.36-14.78,7.37,14.78L125.42,195Z"></path><path class="cls-7" d="M174.12,206.55l.76,4.56q-13.19-.45-25.27-.51l.68-4L138.51,195l16.33-2.44,7.37-14.78,7.36,14.78L185.9,195Z"></path><path class="cls-7" d="M232.47,206.55l1.41,8.43q-13.56-1.3-26.29-2.17l1-6.26L196.86,195l16.33-2.44,7.37-14.78,7.36,14.78L244.26,195Z"></path></g><path class="cls-8" d="M116.37,222.84l-14.65-7.63-14.64,7.63,1.72-10.25c7.85-.59,16.39-1.09,25.61-1.44Z"></path><path class="cls-8" d="M176.85,222.84l-14.64-7.63-14.65,7.63,2.05-12.24q12.07.06,25.27.51Z"></path><path class="cls-8" d="M235.2,222.84l-14.64-7.63-14.65,7.63,1.68-10q12.74.88,26.29,2.17Z"></path></g></g><g id="Phone_Frame" data-name="Phone Frame"><path class="cls-2" d="M495.31,222.44V657.86a43.19,43.19,0,0,1-43.19,43.19H68.32a43.17,43.17,0,0,1-43.18-43.19v-401s5.76-1.94,17-4.38c6.29-1.36,14.29-2.89,24-4.32V610.5H454.36V235.29c9.38-2.51,17.38-4.9,23.76-6.93C489.14,224.85,495.31,222.44,495.31,222.44Z"></path></g><g id="Pokeball_Button" data-name="Pokeball Button"><path class="cls-9" d="M290.55,653.49H272.27a12.33,12.33,0,0,0-24.09,0H229.9a30.44,30.44,0,0,1,60.65,0Z"></path><path class="cls-9" d="M290.54,658.85a30.44,30.44,0,0,1-60.63,0h18.3a12.32,12.32,0,0,0,24,0Z"></path></g><g id="Phone_BG" data-name="Phone BG"><path class="cls-3" d="M454.36,235.29V610.5H66.09V248.12c37.66-5.55,100.6-9.7,185.89,2.42C332.26,262,409.21,247.35,454.36,235.29Z"></path></g><g id="Pika"><path id="Pika_Main" data-name="Pika Main" class="cls-7" d="M422.08,577c3.66-3.68,28.18-29.47,32.1-63.64-.5-14.29-5.39-94.55-52.28-134.61h0c-39.84,76.84-38.31,158.5-38.05,166.52-31-11.56-66.61-18.17-104-18.17s-72.67,6.57-103.37,18.14c0,0,3.92-86.27-38-167.17h0C71.56,418.16,66.66,498.42,66.16,512.71c4.25,36.94,32.58,64.11,32.58,64.11-3.59,2.77-7,5.62-10.35,8.59.72-.12,19.55-2.94,35.78,25.09h329.9A146.68,146.68,0,0,0,422.08,577Z"></path><g id="Pika_Ears" data-name="Pika Ears"><path class="cls-10" d="M66.09,308.39V512.18c0,.17,0,.36.07.53.5-14.29,5.4-94.55,52.28-134.61C105.7,353.52,88.72,329.41,66.09,308.39Z"></path><path class="cls-10" d="M401.9,378.78c46.89,40.06,51.78,120.32,52.28,134.61a3.21,3.21,0,0,0,.07-.53V309.07C431.63,330.09,414.64,354.2,401.9,378.78Z"></path></g><g id="Pika_Cheeks" data-name="Pika Cheeks"><path class="cls-4" d="M88.39,585.42h0A153.81,153.81,0,0,0,66.09,609.9v.6h58.08C107.94,582.48,89.11,585.3,88.39,585.42Z"></path><path class="cls-4" d="M432.07,585.42h0c-.72-.12-19.55-2.94-35.78,25.08h58.07v-.6A152.87,152.87,0,0,0,432.07,585.42Z"></path></g></g><g id="PZ_Letters" data-name="PZ Letters"><path class="cls-11" d="M214.7,396.46a7.86,7.86,0,0,1,5.83-8.21c5-1.32,13.12-3.69,24.71-7.79a361.94,361.94,0,0,0,67.86-32.68,7.88,7.88,0,0,1,11.15,10.31L269.33,465.33a2.91,2.91,0,0,0,3.64,4L343.21,442c6.22-2.42,11,3.18,10.34,9.83-.6,6.4-4.58,17.26-5.7,27.3-1.52,13.72-1.31,15.3-1.42,25.44-.07,6.09-4,9.61-9.89,8a221.41,221.41,0,0,0-59.05-8.18c-13.27,0-25.06.79-46.69,3.92A7.86,7.86,0,0,1,223,496.43l60.36-98.32a5,5,0,0,0-6.2-7.3l-42,17.17a7.69,7.69,0,0,0-2.33,1.48l-8.77,8a4.79,4.79,0,0,1-8-3.18Z"></path><path class="cls-11" d="M261.61,291.43c-14.19-51.52-90.42-26.74-125.49-12.24a18.48,18.48,0,0,0-9.6,25l73.09,173.25c2.54,5.36,10.63,2.95,9.82-2.92l-13-96S276.72,346.37,261.61,291.43Zm-67.48,73.41L190,334.06c7.67-4.67,11.81-11.92,9.51-17.66-1.72-4.34-6.7-6.77-12.81-6.89l-3.94-29.32s65.48-22.85,65.48,23.12C248.23,342.4,194.13,364.84,194.13,364.84Z"></path></g><g id="Border" class="cls-12"><path class="cls-11" d="M128.13,10.46c37.07,0,83.24,4.75,139,18.66,44.78,11.17,82.57,15,113.32,15,66.56,0,100.13-17.89,100.13-17.89s29.17,18.52,5.71,79.45c0,0-7.29,3-22.59,6.21-16.89,3.51-43.5,7.2-80.83,7.2-35.66,0-81.09-3.37-137.15-13.47a407.15,407.15,0,0,0-72.35-6.7c-49.93,0-88.51,10.14-115.15,20.69C29.26,131.06,14.42,143,14.42,143s37.12-85.19-4-110.41c0,0,37.65-22.14,117.67-22.14m0-10.46C46.21,0,6.8,22.62,5.16,23.58A10.46,10.46,0,0,0,5,41.51c6.85,4.21,11.14,11,13.13,20.88,1.8,8.9,1.62,19.93-.53,32.79A213.16,213.16,0,0,1,4.82,138.84,10.47,10.47,0,0,0,21,151.16c.11-.1,14.22-11.2,41-21.83a273.55,273.55,0,0,1,47-13.77,327.11,327.11,0,0,1,64.25-6.19,399.13,399.13,0,0,1,70.5,6.53c50.2,9,97,13.64,139,13.64,39.09,0,66.69-4,83-7.42,15.81-3.28,23.64-6.45,24.48-6.8a10.46,10.46,0,0,0,5.75-5.89c5.74-14.92,9-28.82,9.68-41.31A72.85,72.85,0,0,0,502,39.59c-5.42-15.2-14.85-21.53-15.91-22.2a10.42,10.42,0,0,0-5.62-1.65A10.23,10.23,0,0,0,475.63,17c-.43.22-8.49,4.3-23.83,8.33-14.5,3.8-38.66,8.34-71.4,8.34-34.47,0-71.74-4.94-110.79-14.68-50.42-12.59-98-19-141.48-19Z"></path><path class="cls-11" d="M453.32,143.06a24.75,24.75,0,0,1,19.87,10,25.22,25.22,0,0,1,2.48,4.08,24.65,24.65,0,0,1,2.44,10.75h0v31.26h0v29.25c11-3.51,17.2-5.92,17.2-5.92V657.86a43.19,43.19,0,0,1-43.19,43.19H68.32a43.17,43.17,0,0,1-43.18-43.19v-401s5.77-1.94,17-4.38V167.85h0A24.59,24.59,0,0,1,46.38,154c.22-.33.45-.66.69-1a24.73,24.73,0,0,1,19.86-10H453.32m0-10.46H66.93a35.45,35.45,0,0,0-28.24,14.15c-.34.45-.67.92-1,1.39a35.15,35.15,0,0,0-6,19.71v76.29c-6.33,1.58-9.69,2.7-9.87,2.76a10.48,10.48,0,0,0-7.14,9.92v401a53.64,53.64,0,0,0,53.65,53.65h383.8a53.71,53.71,0,0,0,53.65-53.65V222.44A10.47,10.47,0,0,0,495.3,212a10.34,10.34,0,0,0-3.81.72s-1,.4-2.92,1.08V167.85a34.93,34.93,0,0,0-3.48-15.29,35.82,35.82,0,0,0-3.52-5.81,35.45,35.45,0,0,0-28.25-14.15Z"></path></g><g id="Shader" class="cls-13"><g><path class="cls-14" d="M58.17,119.6c38.35-15.19,101.43-29.51,187.5-14,114.73,20.68,185,13.14,218,6.27,15.3-3.18,22.59-6.21,22.59-6.21,23.46-60.93-5.71-79.45-5.71-79.45s-71.76,38.25-213.45,2.9C91.11-14.81,10.46,32.6,10.46,32.6c41.08,25.22,4,110.41,4,110.41S29.26,131.06,58.17,119.6Z"></path><path class="cls-15" d="M478.11,199.11h0V167.85h0a25.14,25.14,0,0,0-.6-5.45c-.12-.53-.26-1.07-.42-1.59-.07-.24-.14-.48-.22-.72-.16-.49-.34-1-.53-1.45s-.43-1-.67-1.54c-.35-.72-.73-1.42-1.15-2.11s-.86-1.34-1.33-2-.92-1.17-1.41-1.72l-.14-.16a24.72,24.72,0,0,0-18.32-8.08H66.93a24.73,24.73,0,0,0-19.86,10c-.24.31-.47.64-.69,1a24.59,24.59,0,0,0-4.24,13.86h0v84.59c-11.23,2.44-17,4.38-17,4.38v401a43.17,43.17,0,0,0,43.18,43.19h383.8a43.19,43.19,0,0,0,43.19-43.19V222.44s-6.18,2.41-17.2,5.92Z"></path></g></g></g></g></svg> 